HIERARCHY
ROOT hip
{
  OFFSET 0 0 0
  CHANNELS 6 Xposition Yposition Zposition Zrotation Yrotation Xrotation
  JOINT abdomen
  {
    OFFSET 0 20.6881 -0.73152
    CHANNELS 3 Zrotation Xrotation Yrotation
    JOINT chest
    {
      OFFSET 0 11.7043 -0.48768
      CHANNELS 3 Zrotation Xrotation Yrotation
      JOINT neck
      {
        OFFSET 0 22.1894 -2.19456
        CHANNELS 3 Zrotation Xrotation Yrotation
        JOINT head
        {
          OFFSET -0.24384 7.07133 1.2192
          CHANNELS 3 Zrotation Xrotation Yrotation
          JOINT leftEye
          {
            OFFSET 4.14528 8.04674 8.04672
            CHANNELS 3 Zrotation Xrotation Yrotation
            End Site
            {
              OFFSET 1 0 0
            }
          }
          JOINT rightEye
          {
            OFFSET -3.6576 8.04674 8.04672
            CHANNELS 3 Zrotation Xrotation Yrotation
            End Site
            {
              OFFSET 1 0 0
            }
          }
        }
      }
      JOINT rCollar
      {
        OFFSET -2.68224 19.2634 -4.8768
        CHANNELS 3 Zrotation Xrotation Yrotation
        JOINT rShldr
        {
          OFFSET -8.77824 -1.95073 1.46304
          CHANNELS 3 Zrotation Xrotation Yrotation
          JOINT rForeArm
          {
            OFFSET -28.1742 -1.7115 0.48768
            CHANNELS 3 Zrotation Xrotation Yrotation
            JOINT rHand
            {
              OFFSET -22.5879 0.773209 7.07136
              CHANNELS 3 Zrotation Xrotation Yrotation
              JOINT rThumb1
              {
                OFFSET -1.2192 -0.487915 3.41376
                CHANNELS 3 Zrotation Xrotation Yrotation
                JOINT rThumb2
                {
                  OFFSET -3.37035 -0.52449 3.41376
                  CHANNELS 3 Zrotation Xrotation Yrotation
                  End Site
                  {
                    OFFSET -1.78271 -1.18214 1.43049
                  }
                }
              }
              JOINT rIndex1
              {
                OFFSET -7.75947 0.938293 5.60832
                CHANNELS 3 Zrotation Xrotation Yrotation
                JOINT rIndex2
                {
                  OFFSET -2.54057 -0.884171 1.56538
                  CHANNELS 3 Zrotation Xrotation Yrotation
                  End Site
                  {
                    OFFSET -1.62519 -0.234802 1.16502
                  }
                }
              }
              JOINT rMid1
              {
                OFFSET -8.24714 1.18213 3.41376
                CHANNELS 3 Zrotation Xrotation Yrotation
                JOINT rMid2
                {
                  OFFSET -3.10165 -0.590103 1.0647
                  CHANNELS 3 Zrotation Xrotation Yrotation
                  End Site
                  {
                    OFFSET -2.48547 -0.328903 0.83742
                  }
                }
              }
              JOINT rRing1
              {
                OFFSET -8.82822 0.546677 1.51678
                CHANNELS 3 Zrotation Xrotation Yrotation
                JOINT rRing2
                {
                  OFFSET -2.60934 -0.819778 -0.0198488
                  CHANNELS 3 Zrotation Xrotation Yrotation
                  End Site
                  {
                    OFFSET -2.33842 -0.294052 0.168128
                  }
                }
              }
              JOINT rPinky1
              {
                OFFSET -8.27202 -0.0477905 -0.4584
                CHANNELS 3 Zrotation Xrotation Yrotation
                JOINT rPinky2
                {
                  OFFSET -1.82734 -0.647385 -0.700984
                  CHANNELS 3 Zrotation Xrotation Yrotation
                  End Site
                  {
                    OFFSET -1.69225 -0.51767 -0.607171
                  }
                }
              }
            }
          }
        }
      }
      JOINT lCollar
      {
        OFFSET 2.68224 19.2634 -4.8768
        CHANNELS 3 Zrotation Xrotation Yrotation
        JOINT lShldr
        {
          OFFSET 8.77824 -1.95073 1.46304
          CHANNELS 3 Zrotation Xrotation Yrotation
          JOINT lForeArm
          {
            OFFSET 28.1742 -1.7115 0.48768
            CHANNELS 3 Zrotation Xrotation Yrotation
            JOINT lHand
            {
              OFFSET 22.5879 0.773209 7.07136
              CHANNELS 3 Zrotation Xrotation Yrotation
              JOINT lThumb1
              {
                OFFSET 1.2192 -0.487915 3.41376
                CHANNELS 3 Zrotation Xrotation Yrotation
                JOINT lThumb2
                {
                  OFFSET 3.37035 -0.52449 3.41376
                  CHANNELS 3 Zrotation Xrotation Yrotation
                  End Site
                  {
                    OFFSET 1.78271 -1.18214 1.43049
                  }
                }
              }
              JOINT lIndex1
              {
                OFFSET 7.75947 0.938293 5.60832
                CHANNELS 3 Zrotation Xrotation Yrotation
                JOINT lIndex2
                {
                  OFFSET 2.54057 -0.884171 1.56538
                  CHANNELS 3 Zrotation Xrotation Yrotation
                  End Site
                  {
                    OFFSET 1.62519 -0.234802 1.16502
                  }
                }
              }
              JOINT lMid1
              {
                OFFSET 8.24714 1.18213 3.41376
                CHANNELS 3 Zrotation Xrotation Yrotation
                JOINT lMid2
                {
                  OFFSET 3.10165 -0.590103 1.0647
                  CHANNELS 3 Zrotation Xrotation Yrotation
                  End Site
                  {
                    OFFSET 2.48547 -0.328903 0.83742
                  }
                }
              }
              JOINT lRing1
              {
                OFFSET 8.82822 0.546677 1.51678
                CHANNELS 3 Zrotation Xrotation Yrotation
                JOINT lRing2
                {
                  OFFSET 2.60934 -0.819778 -0.0198488
                  CHANNELS 3 Zrotation Xrotation Yrotation
                  End Site
                  {
                    OFFSET 2.33842 -0.294052 0.168128
                  }
                }
              }
              JOINT lPinky1
              {
                OFFSET 8.27202 -0.0477905 -0.4584
                CHANNELS 3 Zrotation Xrotation Yrotation
                JOINT lPinky2
                {
                  OFFSET 1.82734 -0.647385 -0.700984
                  CHANNELS 3 Zrotation Xrotation Yrotation
                  End Site
                  {
                    OFFSET 1.69225 -0.51767 -0.607171
                  }
                }
              }
            }
          }
        }
      }
    }
  }
  JOINT rButtock
  {
    OFFSET -8.77824 4.35084 1.2192
    CHANNELS 3 Zrotation Xrotation Yrotation
    JOINT rThigh
    {
      OFFSET 0 -1.70687 -2.19456
      CHANNELS 3 Zrotation Xrotation Yrotation
      JOINT rShin
      {
        OFFSET 0 -36.8199 0.73152
        CHANNELS 3 Zrotation Xrotation Yrotation
        JOINT rFoot
        {
          OFFSET 0.73152 -45.1104 -5.12064
          CHANNELS 3 Zrotation Xrotation Yrotation
          End Site
          {
            OFFSET -1.1221 -3.69964 12.103
          }
        }
      }
    }
  }
  JOINT lButtock
  {
    OFFSET 8.77824 4.35084 1.2192
    CHANNELS 3 Zrotation Xrotation Yrotation
    JOINT lThigh
    {
      OFFSET 0 -1.70687 -2.19456
      CHANNELS 3 Zrotation Xrotation Yrotation
      JOINT lShin
      {
        OFFSET 0 -36.8199 0.73152
        CHANNELS 3 Zrotation Xrotation Yrotation
        JOINT lFoot
        {
          OFFSET -0.73152 -45.1104 -5.12064
          CHANNELS 3 Zrotation Xrotation Yrotation
          End Site
          {
            OFFSET 1.1221 -3.69964 12.103
          }
        }
      }
    }
  }
}
MOTION
Frames:	4
Frame Time:	0.00833333
90.4032 83.5109 -17.4086 29.039 977.804 -21.6151 12.0135 -0.46211 19.7435 -6.53063 -8.47725 5.17867 -10.5384 20.3011 -11.9235 16.3605 -31.6811 -19.9681 -0.0 0.0 0.0 -0.0 0.0 0.0 -3.65614e-13 -1.81389e-12 1.00767e-13 52.2763 38.403 38.7807 -25.3634 -21.8977 54.2926 -0.00305411 -2.2331 -0.313913 -1.05673e-10 -2.23711e-11 8.22962e-10 -1.9155e-10 -3.0645e-11 1.42586e-09 -1.0567e-10 -2.23727e-11 8.2295e-10 7.73091 5.47488 0.417314 -1.05672e-10 -2.2373e-11 8.22958e-10 2.90554 0.965183 0.102902 -1.05669e-10 -2.23694e-11 8.22961e-10 10.2786 0.731801 0.0259123 -1.05682e-10 -2.23693e-11 8.22965e-10 2.22167 -0.733487 -0.20892 -3.65661e-13 -1.81389e-12 1.00514e-13 -79.2637 -6.17314 27.6505 25.2562 -21.6569 -53.8696 0.470538 19.1352 -2.79482 1.53929e-09 7.02424e-09 2.25275e-09 2.69193e-09 1.20427e-08 3.87158e-09 1.53929e-09 7.02424e-09 2.25275e-09 -7.73091 5.47488 -0.417314 1.53929e-09 7.02425e-09 2.25274e-09 -2.90554 0.965183 -0.102902 1.53929e-09 7.02424e-09 2.25274e-09 -10.2786 0.731801 -0.0259123 1.5393e-09 7.02424e-09 2.25273e-09 -2.22167 -0.733487 0.20892 -2.03217e-16 0.0 -3.88251e-19 7.70554 -19.2692 -13.4233 0.0580533 28.6348 0.710758 -8.9195 -19.3405 -22.7143 2.03217e-16 0.0 3.88251e-19 8.79985 -40.6617 -7.14328 0.908889 57.2814 -1.42477 0.845787 -9.27385 1.64538
91.9268 83.3221 -17.683 41.2253 979.855 -33.752 12.4192 -0.583402 19.3342 -5.9574 -8.87889 5.08844 -10.4632 20.6636 -12.3584 16.587 -31.6905 -20.8058 -0.0 0.0 0.0 -0.0 0.0 0.0 -3.66255e-13 -2.2324e-12 4.78077e-14 53.0711 36.3647 38.29 -25.5173 -22.2537 54.8486 -0.0112003 -3.02019 -0.424858 5.9629e-11 1.67886e-10 1.19068e-09 9.47599e-11 2.99506e-10 2.06369e-09 5.96298e-11 1.67883e-10 1.19066e-09 7.73091 5.47488 0.417314 5.96294e-11 1.67883e-10 1.19067e-09 2.90554 0.965183 0.102902 5.96307e-11 1.67888e-10 1.19068e-09 10.2786 0.731801 0.0259123 5.96199e-11 1.67887e-10 1.19068e-09 2.22167 -0.733487 -0.20892 -3.6629e-13 -2.2324e-12 4.75592e-14 -78.2522 -8.75393 28.9301 25.4146 -22.016 -54.4602 0.451452 18.7482 -2.73417 2.25773e-09 5.96605e-09 2.39464e-09 3.93476e-09 1.02001e-08 4.10435e-09 2.25773e-09 5.96605e-09 2.39464e-09 -7.73091 5.47488 -0.417314 2.25773e-09 5.96605e-09 2.39463e-09 -2.90554 0.965183 -0.102902 2.25773e-09 5.96605e-09 2.39464e-09 -10.2786 0.731801 -0.0259123 2.25774e-09 5.96605e-09 2.39463e-09 -2.22167 -0.733487 0.20892 -2.03217e-16 0.0 -3.88251e-19 8.33777 -20.3201 -14.5526 0.051796 28.953 0.643964 -9.43875 -19.469 -23.8476 2.03217e-16 0.0 3.88251e-19 9.71968 -39.979 -5.35616 1.04165 59.5947 -1.53243 0.642181 -8.59689 0.987893
93.35 83.1005 -17.7969 55.8273 981.652 -48.5221 12.2798 -0.804649 19.1599 -5.3975 -9.1218 5.08583 -9.8331 21.2296 -12.9626 16.2571 -32.1938 -22.0577 -0.0 0.0 0.0 -0.0 0.0 0.0 -2.60171e-13 -1.96369e-12 2.98029e-14 54.5687 33.9279 37.273 -25.7207 -22.7387 55.5985 -0.0145769 -3.06455 -0.431302 5.42445e-10 -1.50156e-10 2.58841e-10 9.33682e-10 -2.53553e-10 4.51174e-10 5.42446e-10 -1.50157e-10 2.58828e-10 7.73091 5.47488 0.417314 5.42445e-10 -1.50157e-10 2.58839e-10 2.90554 0.965183 0.102902 5.42446e-10 -1.50152e-10 2.58842e-10 10.2786 0.731801 0.0259123 5.42438e-10 -1.50153e-10 2.58846e-10 2.22167 -0.733487 -0.20892 -2.60204e-13 -1.9637e-12 2.95366e-14 -76.7556 -10.5952 30.0152 25.5406 -22.3072 -54.9544 0.447986 18.6697 -2.72203 1.10826e-09 1.73446e-09 1.62363e-09 1.93848e-09 2.95612e-09 2.7885e-09 1.10827e-09 1.73446e-09 1.62364e-09 -7.73091 5.47488 -0.417314 1.10826e-09 1.73446e-09 1.62363e-09 -2.90554 0.965183 -0.102902 1.10826e-09 1.73446e-09 1.62364e-09 -10.2786 0.731801 -0.0259123 1.10827e-09 1.73446e-09 1.62363e-09 -2.22167 -0.733487 0.20892 -2.03217e-16 0.0 -3.88251e-19 8.81784 -21.1635 -14.7715 0.0419581 29.1688 0.577184 -10.4228 -19.9953 -25.5887 2.03217e-16 0.0 3.88251e-19 10.2696 -38.6385 -4.14923 1.15422 61.2066 -1.61886 0.679679 -8.02178 1.27979
94.6524 82.972 -17.8187 74.4591 982.981 -67.4716 11.7386 -1.08352 19.1144 -4.81096 -9.26887 5.1365 -8.84082 21.9088 -13.6607 15.5298 -32.9746 -23.5584 -0.0 0.0 0.0 -0.0 0.0 0.0 -7.93182e-14 -1.23142e-12 4.08751e-14 56.417 31.2142 35.9871 -25.9456 -23.2965 56.4811 -0.0139546 -2.62112 -0.369076 1.27247e-09 -8.11472e-10 -1.51212e-09 2.20256e-09 -1.4031e-09 -2.61456e-09 1.27248e-09 -8.11471e-10 -1.51213e-09 7.73091 5.47488 0.417314 1.27247e-09 -8.11471e-10 -1.51212e-09 2.90554 0.965183 0.102902 1.27247e-09 -8.11467e-10 -1.51212e-09 10.2786 0.731801 0.0259123 1.27247e-09 -8.11467e-10 -1.51211e-09 2.22167 -0.733487 -0.20892 -7.93544e-14 -1.23143e-12 4.05769e-14 -74.911 -12.0175 31.0027 25.6419 -22.5473 -55.3482 0.455287 18.8169 -2.74509 -1.27497e-09 -4.73633e-09 2.44691e-10 -2.19729e-09 -8.10313e-09 4.41418e-10 -1.27497e-09 -4.73633e-09 2.44696e-10 -7.73091 5.47488 -0.417314 -1.27497e-09 -4.73634e-09 2.4468e-10 -2.90554 0.965183 -0.102902 -1.27497e-09 -4.73633e-09 2.44691e-10 -10.2786 0.731801 -0.0259123 -1.27496e-09 -4.73633e-09 2.44684e-10 -2.22167 -0.733487 0.20892 -2.03217e-16 0.0 -3.88251e-19 9.12979 -21.9164 -14.392 0.0278798 29.3716 0.505724 -11.7155 -20.7487 -27.6322 2.03217e-16 0.0 3.88251e-19 10.4806 -36.736 -3.4834 1.24668 62.3418 -1.67982 0.77019 -7.45108 1.81107
